{
    "asset": {
        "version": "2.0",
        "generator": "Open Asset Import Library (assimp v5.2.cf7d3637)"
    },
    "extensionsUsed": [
        "KHR_materials_volume",
        "FB_ngon_encoding"
    ],
    "accessors": [
        {
            "bufferView": 0,
            "byteOffset": 0,
            "componentType": 5126,
            "count": 321,
            "type": "VEC3",
            "max": [
                9.723333358764649,
                20.351329803466798,
                4.875738143920898
            ],
            "min": [
                -9.125640869140625,
                -1.1141197681427003,
                -10.499774932861329
            ]
        },
        {
            "bufferView": 1,
            "byteOffset": 0,
            "componentType": 5126,
            "count": 321,
            "type": "VEC3",
            "max": [
                1.0,
                1.0,
                1.0
            ],
            "min": [
                -1.0,
                -1.0,
                -1.0
            ]
        },
        {
            "bufferView": 2,
            "byteOffset": 0,
            "componentType": 5126,
            "count": 321,
            "type": "VEC2",
            "max": [
                0.33076047897338869,
                0.46454954147338869
            ],
            "min": [
                0.06973376870155335,
                0.13371407985687257
            ]
        },
        {
            "bufferView": 3,
            "byteOffset": 0,
            "componentType": 5125,
            "count": 321,
            "type": "SCALAR",
            "max": [
                320
            ],
            "min": [
                0
            ]
        },
        {
            "bufferView": 4,
            "byteOffset": 0,
            "componentType": 5126,
            "count": 84,
            "type": "VEC3",
            "max": [
                8.256112098693848,
                20.54509735107422,
                1.2702605724334717
            ],
            "min": [
                -0.8746541738510132,
                -1.0,
                -7.899355888366699
            ]
        },
        {
            "bufferView": 5,
            "byteOffset": 0,
            "componentType": 5126,
            "count": 84,
            "type": "VEC3",
            "max": [
                0.8660255074501038,
                1.0,
                0.9868205785751343
            ],
            "min": [
                -0.990778923034668,
                -1.0,
                -0.6674925684928894
            ]
        },
        {
            "bufferView": 6,
            "byteOffset": 0,
            "componentType": 5126,
            "count": 84,
            "type": "VEC2",
            "max": [
                1.0,
                0.8700000047683716
            ],
            "min": [
                -5.960464477539063e-8,
                0.0
            ]
        },
        {
            "bufferView": 7,
            "byteOffset": 0,
            "componentType": 5125,
            "count": 84,
            "type": "SCALAR",
            "max": [
                83
            ],
            "min": [
                0
            ]
        }
    ],
    "buffers": [
        {
            "byteLength": 14580,
            "uri": "scene.bin"
        }
    ],
    "bufferViews": [
        {
            "buffer": 0,
            "byteOffset": 0,
            "byteLength": 3852,
            "target": 34962
        },
        {
            "buffer": 0,
            "byteOffset": 3852,
            "byteLength": 3852,
            "target": 34962
        },
        {
            "buffer": 0,
            "byteOffset": 7704,
            "byteLength": 2568,
            "target": 34962
        },
        {
            "buffer": 0,
            "byteOffset": 10272,
            "byteLength": 1284,
            "target": 34963
        },
        {
            "buffer": 0,
            "byteOffset": 11556,
            "byteLength": 1008,
            "target": 34962
        },
        {
            "buffer": 0,
            "byteOffset": 12564,
            "byteLength": 1008,
            "target": 34962
        },
        {
            "buffer": 0,
            "byteOffset": 13572,
            "byteLength": 672,
            "target": 34962
        },
        {
            "buffer": 0,
            "byteOffset": 14244,
            "byteLength": 336,
            "target": 34963
        }
    ],
    "images": [
        {
            "name": "PiratesPack_TX",
            "uri": "data:image/png;base64,"
        }
    ],
    "materials": [
        {
            "name": "Material.001",
            "pbrMetallicRoughness": {
                "baseColorTexture": {
                    "index": 0
                },
                "metallicFactor": 0.0,
                "roughnessFactor": 0.5
            },
            "doubleSided": true
        },
        {
            "name": "material"
        }
    ],
    "meshes": [
        {
            "name": "Cylinder",
            "primitives": [
                {
                    "mode": 4,
                    "material": 0,
                    "indices": 3,
                    "attributes": {
                        "POSITION": 0,
                        "NORMAL": 1,
                        "TEXCOORD_0": 2
                    }
                }
            ]
        },
        {
            "name": "Cylinder.001",
            "primitives": [
                {
                    "mode": 4,
                    "material": 1,
                    "indices": 7,
                    "attributes": {
                        "POSITION": 4,
                        "NORMAL": 5,
                        "TEXCOORD_0": 6
                    }
                }
            ]
        }
    ],
    "nodes": [
        {
            "name": "ROOT",
            "children": [
                1,
                2
            ]
        },
        {
            "name": "tree",
            "matrix": [
                0.2868252396583557,
                0.0,
                0.0,
                0.0,
                0.0,
                0.2868252396583557,
                0.0,
                0.0,
                0.0,
                0.0,
                0.2868252396583557,
                0.0,
                -0.1139543354511261,
                0.3850885331630707,
                0.0,
                1.0
            ],
            "mesh": 0
        },
        {
            "name": "tree_collider",
            "matrix": [
                0.2868252396583557,
                0.0,
                0.0,
                0.0,
                0.0,
                0.2868252396583557,
                0.0,
                0.0,
                0.0,
                0.0,
                0.2868252396583557,
                0.0,
                -0.7032779455184937,
                0.32239803671836855,
                0.0,
                1.0
            ],
            "mesh": 1
        }
    ],
    "samplers": [
        {}
    ],
    "scenes": [
        {
            "nodes": [
                0
            ]
        }
    ],
    "textures": [
        {
            "source": 0,
            "sampler": 0
        }
    ],
    "scene": 0
}